<?xml version="1.0" encoding="utf-8"?>
<!-- Generator: Adobe Illustrator 16.0.0, SVG Export Plug-In . SVG Version: 6.00 Build 0)  -->
<!DOCTYPE svg PUBLIC "-//W3C//DTD SVG 1.1//EN" "http://www.w3.org/Graphics/SVG/1.1/DTD/svg11.dtd">
<svg version="1.1" id="Layer_1" xmlns="http://www.w3.org/2000/svg" xmlns:xlink="http://www.w3.org/1999/xlink" x="0px" y="0px"
	 width="414px" height="100px" viewBox="0 0 414 100" enable-background="new 0 0 414 100" xml:space="preserve">
<g>
	<path fill="#804C02" d="M3.921,43.931h7.91v3.164c1.523-1.594,2.824-2.672,3.902-3.234c1.148-0.585,2.589-0.879,4.324-0.879
		c3.867,0,6.926,1.688,9.176,5.062c2.484-3.375,5.848-5.062,10.09-5.062c7.711,0,11.566,4.676,11.566,14.028v21.164h-7.945v-19.02
		c0-3.281-0.399-5.602-1.195-6.961c-0.821-1.383-2.168-2.075-4.043-2.075c-2.18,0-3.768,0.821-4.764,2.461
		c-0.997,1.641-1.494,4.277-1.494,7.91v17.684h-7.945V59.26c0-6.094-1.758-9.141-5.273-9.141c-2.227,0-3.85,0.832-4.869,2.497
		c-1.02,1.664-1.529,4.289-1.529,7.875v17.684h-7.91V43.931z"/>
	<path fill="#804C02" d="M86.116,43.931h7.945v34.243h-7.945v-3.586c-3.258,3.047-6.762,4.57-10.512,4.57
		c-4.734,0-8.648-1.711-11.742-5.133c-3.071-3.492-4.605-7.852-4.605-13.078c0-5.133,1.535-9.41,4.605-12.833
		c3.07-3.422,6.914-5.133,11.531-5.133c3.984,0,7.559,1.641,10.723,4.922V43.931z M67.343,60.947c0,3.281,0.879,5.953,2.637,8.016
		c1.805,2.086,4.078,3.129,6.82,3.129c2.93,0,5.296-1.008,7.102-3.023c1.805-2.086,2.707-4.734,2.707-7.945
		s-0.902-5.859-2.707-7.945c-1.805-2.039-4.148-3.059-7.031-3.059c-2.719,0-4.992,1.032-6.82,3.094
		C68.245,55.299,67.343,57.877,67.343,60.947z"/>
	<path fill="#804C02" d="M111.956,18.794v36.211l11.145-11.075h10.617l-14.871,14.379l15.961,19.863h-10.266l-11.32-14.449
		l-1.266,1.266v13.184h-7.91V18.794H111.956z"/>
	<path fill="#804C02" d="M169.929,62.916H145.39c0.211,2.812,1.125,5.051,2.742,6.715c1.617,1.641,3.691,2.461,6.223,2.461
		c1.969,0,3.598-0.469,4.887-1.406c1.266-0.938,2.707-2.672,4.324-5.203l6.68,3.727c-1.032,1.758-2.122,3.264-3.27,4.518
		c-1.148,1.254-2.379,2.285-3.691,3.094c-1.313,0.809-2.73,1.4-4.254,1.775c-1.524,0.374-3.176,0.562-4.957,0.562
		c-5.11,0-9.211-1.641-12.305-4.922c-3.094-3.305-4.641-7.688-4.641-13.148c0-5.414,1.5-9.797,4.5-13.149
		c3.023-3.305,7.031-4.957,12.023-4.957c5.039,0,9.023,1.605,11.953,4.816c2.906,3.188,4.359,7.606,4.359,13.254L169.929,62.916z
		 M161.808,56.447c-1.102-4.219-3.762-6.329-7.98-6.329c-0.961,0-1.863,0.146-2.707,0.439c-0.844,0.293-1.612,0.715-2.303,1.266
		c-0.691,0.551-1.283,1.213-1.775,1.986s-0.867,1.652-1.125,2.637H161.808z"/>
	<path fill="#804C02" d="M178.577,43.931h7.91v3.059c1.453-1.523,2.742-2.566,3.867-3.129c1.148-0.585,2.508-0.879,4.078-0.879
		c2.086,0,4.266,0.68,6.54,2.039l-3.622,7.243c-1.5-1.078-2.965-1.618-4.395-1.618c-4.312,0-6.469,3.258-6.469,9.774v17.754h-7.91
		V43.931z"/>
	<path fill="#804C02" d="M216.266,51.314v26.859h-7.91V51.314h-3.375v-7.383h3.375V31.38h7.91v12.551h6.152v7.383H216.266z"/>
	<path fill="#804C02" d="M227.797,43.931h7.91v3.059c1.453-1.523,2.742-2.566,3.867-3.129c1.148-0.585,2.508-0.879,4.078-0.879
		c2.086,0,4.266,0.68,6.539,2.039l-3.621,7.243c-1.5-1.078-2.965-1.618-4.395-1.618c-4.312,0-6.469,3.258-6.469,9.774v17.754h-7.91
		V43.931z"/>
	<path fill="#804C02" d="M279.477,43.931h7.945v34.243h-7.945v-3.586c-3.258,3.047-6.762,4.57-10.512,4.57
		c-4.734,0-8.648-1.711-11.742-5.133c-3.07-3.492-4.605-7.852-4.605-13.078c0-5.133,1.535-9.41,4.605-12.833
		c3.07-3.422,6.914-5.133,11.531-5.133c3.984,0,7.559,1.641,10.723,4.922V43.931z M260.703,60.947c0,3.281,0.879,5.953,2.637,8.016
		c1.805,2.086,4.078,3.129,6.82,3.129c2.93,0,5.297-1.008,7.102-3.023c1.805-2.086,2.707-4.734,2.707-7.945
		s-0.902-5.859-2.707-7.945c-1.805-2.039-4.148-3.059-7.031-3.059c-2.719,0-4.992,1.032-6.82,3.094
		C261.605,55.299,260.703,57.877,260.703,60.947z"/>
	<path fill="#804C02" d="M296.211,29.693c0-1.383,0.504-2.578,1.512-3.586c1.008-1.007,2.215-1.512,3.621-1.512
		c1.43,0,2.648,0.504,3.656,1.512c1.008,0.984,1.512,2.192,1.512,3.621c0,1.43-0.504,2.649-1.512,3.656
		c-0.984,1.008-2.191,1.512-3.621,1.512s-2.648-0.504-3.656-1.512C296.715,32.377,296.211,31.146,296.211,29.693z M305.316,43.931
		v34.243h-7.91V43.931H305.316z"/>
	<path fill="#804C02" d="M323.246,18.794v59.379h-7.91V18.794H323.246z"/>
	<path fill="#804C02" d="M353.164,49.767l-6.539,3.481c-1.031-2.109-2.309-3.165-3.832-3.165c-0.727,0-1.348,0.241-1.863,0.721
		c-0.516,0.481-0.773,1.096-0.773,1.846c0,1.312,1.523,2.613,4.57,3.902c4.195,1.805,7.02,3.469,8.473,4.992s2.18,3.574,2.18,6.152
		c0,3.305-1.219,6.07-3.656,8.297c-2.367,2.109-5.227,3.164-8.578,3.164c-5.742,0-9.809-2.801-12.199-8.402l6.75-3.129
		c0.938,1.641,1.652,2.684,2.145,3.129c0.961,0.891,2.109,1.336,3.445,1.336c2.672,0,4.008-1.219,4.008-3.656
		c0-1.406-1.031-2.719-3.094-3.938c-0.797-0.398-1.594-0.785-2.391-1.16s-1.605-0.762-2.426-1.16
		c-2.297-1.125-3.914-2.25-4.852-3.375c-1.195-1.43-1.793-3.27-1.793-5.52c0-2.977,1.02-5.438,3.059-7.383
		c2.086-1.945,4.617-2.918,7.594-2.918C347.773,42.982,351.031,45.244,353.164,49.767z"/>
</g>
<path fill-rule="evenodd" clip-rule="evenodd" fill="#ED1C24" d="M384.703,88.149c-0.469-1.747-0.88-3.506-1.411-5.225
	c-2.342-7.571-5.926-14.538-10.335-21.099c-2.252-3.35-4.743-6.512-7.361-9.58c-1.506-1.764-3.066-3.499-4.414-5.381
	c-3.099-4.331-4.78-9.205-5.12-14.524c-0.894-14.008,8.144-26.416,21.739-29.871c10.769-2.736,22.488,1.287,29.334,10.037
	c3.204,4.098,5.263,8.697,5.931,13.851c1.205,9.313-1.504,17.373-7.919,24.236c-1.663,1.779-3.153,3.725-4.663,5.642
	c-5.129,6.513-9.372,13.553-12.487,21.253c-1.391,3.436-2.55,6.947-3.25,10.596C384.741,88.11,384.716,88.132,384.703,88.149z"/>
<g>
	<path fill="#FFFFFF" d="M399.788,39.886h-7.595V28.294c0-1.301-0.386-1.951-1.155-1.951c-1.149,0-1.724,1.061-1.724,3.182v10.36
		h-7.595V28.578c0-1.389-0.43-2.083-1.288-2.083c-0.619,0-1.058,0.237-1.316,0.71s-0.389,1.304-0.389,2.491v10.19h-7.595V19.411
		h7.595v1.061c0,0.833-0.038,1.617-0.113,2.349c1.351-2.563,3.112-3.845,5.284-3.845c2.437,0,4.242,1.414,5.417,4.243
		c1.022-2.829,2.715-4.243,5.076-4.243c1.78,0,3.169,0.65,4.167,1.951c0.82,1.086,1.23,2.721,1.23,4.906V39.886z"/>
</g>
<g>
</g>
<g>
</g>
<g>
</g>
<g>
</g>
<g>
</g>
<g>
</g>
<g>
</g>
<g>
</g>
<g>
</g>
<g>
</g>
<g>
</g>
<g>
</g>
<g>
</g>
<g>
</g>
<g>
</g>
</svg>
